<svg width="278" height="120" viewBox="0 0 278 120" fill="none" xmlns="http://www.w3.org/2000/svg">
<path d="M20.3877 17.9704H0.837653V0.97039H58.6377V17.9704H39.0877V119.97H20.3877V17.9704ZM62.5915 0.97039H90.3015C99.9348 0.97039 106.961 3.23706 111.381 7.77039C115.801 12.1904 118.011 19.0471 118.011 28.3404V35.6504C118.011 48.0037 113.931 55.8237 105.771 59.1104V59.4504C110.305 60.8104 113.478 63.5871 115.291 67.7804C117.218 71.9737 118.181 77.5837 118.181 84.6104V105.52C118.181 108.92 118.295 111.697 118.521 113.85C118.748 115.89 119.315 117.93 120.221 119.97H101.181C100.501 118.044 100.048 116.23 99.8215 114.53C99.5948 112.83 99.4815 109.77 99.4815 105.35V83.5904C99.4815 78.1504 98.5748 74.3537 96.7615 72.2004C95.0615 70.0471 92.0582 68.9704 87.7515 68.9704H81.2915V119.97H62.5915V0.97039ZM88.0915 51.9704C91.8315 51.9704 94.6082 51.0071 96.4215 49.0804C98.3481 47.1537 99.3115 43.9237 99.3115 39.3904V30.2104C99.3115 25.9037 98.5182 22.7871 96.9315 20.8604C95.4582 18.9337 93.0782 17.9704 89.7915 17.9704H81.2915V51.9704H88.0915ZM126.056 0.97039H144.756V119.97H126.056V0.97039ZM153.661 0.97039H177.121L195.311 72.2004H195.651V0.97039H212.311V119.97H193.101L170.661 33.1004H170.321V119.97H153.661V0.97039ZM221.11 0.97039H249.67C258.963 0.97039 265.933 3.46372 270.58 8.45039C275.227 13.4371 277.55 20.7471 277.55 30.3804V90.5604C277.55 100.194 275.227 107.504 270.58 112.49C265.933 117.477 258.963 119.97 249.67 119.97H221.11V0.97039ZM249.33 102.97C252.39 102.97 254.713 102.064 256.3 100.25C258 98.4371 258.85 95.4904 258.85 91.4104V29.5304C258.85 25.4504 258 22.5037 256.3 20.6904C254.713 18.8771 252.39 17.9704 249.33 17.9704H239.81V102.97H249.33Z" fill="#242222"/>
</svg>
